<svg width="48" height="48" viewBox="0 0 48 48" fill="none" xmlns="http://www.w3.org/2000/svg">
<g clip-path="url(#clip0_302_2)">
<path d="M6 6C4.4087 6 2.88258 6.63214 1.75736 7.75736C0.632141 8.88258 0 10.4087 0 12L0 36.03C0.00793057 37.6161 0.643571 39.1345 1.76793 40.2533C2.89229 41.372 4.41389 42 6 42H22.5C22.8978 42 23.2794 41.842 23.5607 41.5607C23.842 41.2794 24 40.8978 24 40.5C24 40.1022 23.842 39.7206 23.5607 39.4393C23.2794 39.158 22.8978 39 22.5 39H6C5.33963 39.0001 4.69769 38.7823 4.17372 38.3803C3.64975 37.9784 3.27304 37.4148 3.102 36.777L20.022 26.364L24 28.749L45 16.149V25.5C45 25.8978 45.158 26.2794 45.4393 26.5607C45.7206 26.842 46.1022 27 46.5 27C46.8978 27 47.2794 26.842 47.5607 26.5607C47.842 26.2794 48 25.8978 48 25.5V12C48 10.4087 47.3679 8.88258 46.2426 7.75736C45.1174 6.63214 43.5913 6 42 6H6ZM17.124 24.624L3 33.315V16.149L17.124 24.624ZM3 12.651V12C3 11.2044 3.31607 10.4413 3.87868 9.87868C4.44129 9.31607 5.20435 9 6 9H42C42.7956 9 43.5587 9.31607 44.1213 9.87868C44.6839 10.4413 45 11.2044 45 12V12.651L24 25.251L3 12.651Z" fill="#E4E4E4"/>
<path d="M42.741 42.807C45.771 42.807 47.502 40.236 47.502 36.732V36.102C47.502 31.29 43.92 27 37.56 27H37.455C31.26 27 27 31.08 27 37.296V37.938C27 44.46 31.314 48 37.074 48H37.206C38.988 48 40.26 47.778 40.917 47.475V45.285C40.182 45.615 38.898 45.825 37.377 45.825H37.245C33.243 45.825 29.532 43.461 29.532 37.86V37.389C29.532 32.418 32.706 29.217 37.452 29.217H37.572C42.177 29.217 45.024 32.367 45.024 36.195V36.549C45.024 39.474 44.052 40.719 43.107 40.719C42.411 40.719 41.877 40.275 41.877 39.459V32.889H39.159V34.596H39.069C38.817 33.702 37.965 32.706 36.207 32.706C33.873 32.706 32.43 34.371 32.43 36.906V38.49C32.43 41.166 33.9 42.792 36.21 42.792C37.623 42.792 38.898 42.111 39.252 40.863H39.381C39.735 42.123 41.232 42.807 42.741 42.807ZM35.382 38.043V37.362C35.382 35.724 36.063 34.989 37.101 34.989C37.992 34.989 38.817 35.565 38.817 37.113V38.214C38.817 39.933 38.058 40.446 37.125 40.446C36.063 40.446 35.382 39.801 35.382 38.046V38.043Z" fill="#E4E4E4"/>
</g>
<defs>
<clipPath id="clip0_302_2">
<rect width="48" height="48" fill="white"/>
</clipPath>
</defs>
</svg>
