<svg xmlns="http://www.w3.org/2000/svg" width="48" height="48" fill="none"><g clip-path="url(#a)"><path fill="#E4E4E4" fill-rule="evenodd" d="M23.928 0C10.697 0 0 11 0 24.608c0 10.878 6.854 20.086 16.362 23.345 1.188.245 1.624-.529 1.624-1.18 0-.571-.04-2.527-.04-4.564-6.656 1.467-8.042-2.934-8.042-2.934-1.07-2.852-2.655-3.584-2.655-3.584-2.178-1.508.16-1.508.16-1.508 2.416.163 3.684 2.526 3.684 2.526 2.139 3.748 5.585 2.689 6.972 2.037.198-1.589.832-2.689 1.506-3.3-5.31-.57-10.895-2.689-10.895-12.141 0-2.69.95-4.89 2.456-6.6-.237-.611-1.07-3.138.238-6.52 0 0 2.02-.652 6.576 2.526a22.564 22.564 0 0 1 5.982-.815c2.02 0 4.08.286 5.982.815 4.556-3.178 6.577-2.526 6.577-2.526 1.308 3.382.475 5.908.237 6.52 1.546 1.71 2.457 3.91 2.457 6.6 0 9.452-5.586 11.53-10.934 12.141.871.774 1.624 2.24 1.624 4.563 0 3.3-.04 5.949-.04 6.763 0 .652.436 1.427 1.625 1.182 9.508-3.26 16.361-12.468 16.361-23.346C47.857 11 37.121 0 23.928 0Z" clip-rule="evenodd"/></g><defs><clipPath id="a"><path fill="#fff" d="M0 0h48v48H0z"/></clipPath></defs></svg>