<svg width="20" height="20" viewBox="0 0 20 20" fill="none" xmlns="http://www.w3.org/2000/svg">
<path d="M0.398271 19.6023C-0.132033 19.0719 -0.132033 18.2121 0.398271 17.6818L17.6819 0.397739C18.2122 -0.132579 19.072 -0.132579 19.6023 0.397739C20.1326 0.928057 20.1326 1.78787 19.6023 2.31819L2.31867 19.6023C1.78837 20.1326 0.928575 20.1326 0.398271 19.6023Z" fill="#080808"/>
<path d="M0.397728 0.397739C0.928032 -0.13258 1.78782 -0.13258 2.31813 0.397739L19.6017 17.6818C20.132 18.2121 20.132 19.0719 19.6017 19.6023C19.0714 20.1326 18.2116 20.1326 17.6813 19.6023L0.397728 2.31819C-0.132576 1.78787 -0.132576 0.928057 0.397728 0.397739Z" fill="#080808"/>
</svg>
