<svg width="20" height="20" viewBox="0 0 20 20" fill="none" xmlns="http://www.w3.org/2000/svg">
<path d="M0 19C0 18.4477 0.447715 18 1 18H19C19.5523 18 20 18.4477 20 19C20 19.5523 19.5523 20 19 20H1C0.447716 20 0 19.5523 0 19Z" fill="#080808"/>
<path d="M0 1C0 0.447715 0.447715 0 1 0H19C19.5523 0 20 0.447715 20 1C20 1.55228 19.5523 2 19 2H1C0.447716 2 0 1.55228 0 1Z" fill="#080808"/>
<path d="M0 10C0 9.44772 0.447715 9 1 9H19C19.5523 9 20 9.44772 20 10C20 10.5523 19.5523 11 19 11H1C0.447716 11 0 10.5523 0 10Z" fill="#080808"/>
</svg>
