<svg xmlns="http://www.w3.org/2000/svg" width="48" height="48" fill="none"><g clip-path="url(#a)"><path fill="#E4E4E4" d="M24 0c-6.513 0-7.332.03-9.891.144C11.55.264 9.807.666 8.28 1.26a11.751 11.751 0 0 0-4.251 2.769A11.781 11.781 0 0 0 1.26 8.28C.666 9.804.261 11.55.144 14.1.03 16.665 0 17.481 0 24.003c0 6.516.03 7.332.144 9.891.12 2.556.522 4.299 1.116 5.826.615 1.578 1.434 2.916 2.769 4.251 1.332 1.335 2.67 2.157 4.248 2.769 1.53.594 3.27.999 5.826 1.116C16.665 47.97 17.481 48 24 48s7.332-.03 9.894-.144c2.553-.12 4.302-.522 5.829-1.116 1.6-.603 3.05-1.548 4.248-2.769 1.335-1.335 2.154-2.673 2.769-4.251.591-1.527.996-3.27 1.116-5.826C47.97 31.335 48 30.519 48 24s-.03-7.335-.144-9.897c-.12-2.553-.525-4.299-1.116-5.823a11.778 11.778 0 0 0-2.769-4.251A11.733 11.733 0 0 0 39.72 1.26C38.19.666 36.444.261 33.891.144 31.329.03 30.516 0 23.994 0h.009H24Zm-2.151 4.326h2.154c6.408 0 7.167.021 9.696.138 2.34.105 3.612.498 4.458.825 1.119.435 1.92.957 2.76 1.797.84.84 1.359 1.638 1.794 2.76.33.843.72 2.115.825 4.455.117 2.529.141 3.288.141 9.693 0 6.405-.024 7.167-.141 9.696-.105 2.34-.498 3.609-.825 4.455a7.41 7.41 0 0 1-1.797 2.757c-.84.84-1.638 1.359-2.76 1.794-.84.33-2.112.72-4.455.828-2.529.114-3.288.141-9.696.141-6.408 0-7.17-.027-9.699-.141-2.34-.108-3.609-.498-4.455-.828a7.434 7.434 0 0 1-2.76-1.794 7.44 7.44 0 0 1-1.8-2.76c-.327-.843-.72-2.115-.825-4.455-.114-2.529-.138-3.288-.138-9.699 0-6.408.024-7.164.138-9.693.108-2.34.498-3.612.828-4.458.435-1.119.957-1.92 1.797-2.76.84-.84 1.638-1.359 2.76-1.794.846-.33 2.115-.72 4.455-.828 2.214-.102 3.072-.132 7.545-.135v.006ZM36.813 8.31a2.88 2.88 0 1 0 0 5.76 2.88 2.88 0 0 0 0-5.76Zm-12.81 3.366A12.329 12.329 0 0 0 12.44 28.763a12.327 12.327 0 1 0 11.563-17.087Zm0 4.323a8.001 8.001 0 1 1 0 16.003 8.001 8.001 0 0 1 0-16.003Z"/></g><defs><clipPath id="a"><path fill="#fff" d="M0 0h48v48H0z"/></clipPath></defs></svg>