<svg width="40" height="40" viewBox="0 0 40 40" fill="none" xmlns="http://www.w3.org/2000/svg">
<g clip-path="url(#clip0_305_2)">
<path fill-rule="evenodd" clip-rule="evenodd" d="M1.2501 15C1.06306 15.0001 0.878421 15.0421 0.70979 15.123C0.54116 15.204 0.39284 15.3217 0.275762 15.4676C0.158684 15.6134 0.0758332 15.7837 0.0333168 15.9659C-0.0091995 16.148 -0.0102976 16.3374 0.0301034 16.52L4.1601 35.105C4.46838 36.4931 5.24078 37.7346 6.34981 38.6246C7.45883 39.5145 8.83816 39.9997 10.2601 40H24.7401C26.162 39.9997 27.5414 39.5145 28.6504 38.6246C29.7594 37.7346 30.5318 36.4931 30.8401 35.105L31.1676 33.63C33.0799 33.9877 35.0564 33.5883 36.6797 32.5161C38.3031 31.444 39.4464 29.783 39.8681 27.8838C40.2899 25.9846 39.9571 23.9958 38.9402 22.3373C37.9232 20.6788 36.3016 19.4804 34.4176 18.995L34.9701 16.52C35.0105 16.3374 35.0094 16.148 34.9669 15.9659C34.9244 15.7837 34.8415 15.6134 34.7244 15.4676C34.6074 15.3217 34.459 15.204 34.2904 15.123C34.1218 15.0421 33.9371 15.0001 33.7501 15H1.2501ZM32.5001 31.25C32.2355 31.25 31.9714 31.2291 31.7101 31.1875L33.8776 21.4425C35.0338 21.7774 36.0306 22.518 36.6849 23.5284C37.3392 24.5388 37.6072 25.7512 37.4398 26.9433C37.2724 28.1354 36.6807 29.2271 35.7734 30.0182C34.866 30.8092 33.7039 31.2466 32.5001 31.25ZM6.6001 34.5625L2.8076 17.5H32.1926L28.4001 34.5625C28.2152 35.3955 27.7518 36.1405 27.0864 36.6746C26.421 37.2086 25.5933 37.4998 24.7401 37.5H10.2601C9.40687 37.4998 8.57921 37.2086 7.91379 36.6746C7.24837 36.1405 6.78497 35.3955 6.6001 34.5625Z" fill="#E4E4E4"/>
<path d="M11 2.0002L10.9925 2.0102L10.9575 2.0577C10.7761 2.30833 10.6059 2.56692 10.4475 2.8327C10.3157 3.04733 10.1979 3.2703 10.095 3.5002C10.03 3.6502 10.01 3.7302 10.0025 3.7577V3.7677C10.0308 3.98884 10.1085 4.20077 10.23 4.3877C10.4175 4.7202 10.675 5.0677 11 5.5002L11.025 5.5302C11.32 5.9252 11.675 6.3977 11.95 6.8877C12.23 7.3877 12.5 8.0252 12.5 8.7502C12.5 9.2202 12.3375 9.6702 12.2025 9.9852C12.0557 10.3193 11.887 10.6434 11.6975 10.9552C11.5002 11.2823 11.2891 11.6009 11.065 11.9102L11.02 11.9727L11.0075 11.9927L11.0025 11.9977C10.8039 12.2632 10.508 12.439 10.1798 12.4864C9.85161 12.5337 9.51805 12.4488 9.2525 12.2502C8.98695 12.0516 8.81117 11.7557 8.76381 11.4275C8.71646 11.0993 8.80142 10.7657 9 10.5002L9.0075 10.4902L9.0425 10.4427C9.22397 10.1921 9.39414 9.93351 9.5525 9.6677C9.68617 9.45412 9.80399 9.23102 9.905 9.0002C9.97 8.8502 9.99 8.7702 9.9975 8.7427C9.97148 8.5183 9.89452 8.30281 9.7725 8.1127C9.53845 7.72612 9.28045 7.35456 9 7.0002L8.975 6.9702C8.6378 6.53806 8.32883 6.08461 8.05 5.6127C7.70949 5.04952 7.52005 4.40801 7.5 3.7502C7.5 3.2802 7.6625 2.8302 7.7975 2.5152C7.945 2.1702 8.1325 1.8302 8.3025 1.5452C8.49984 1.21813 8.71086 0.899516 8.935 0.590197L8.9975 0.502697C9.19608 0.237149 9.49202 0.0613626 9.82021 0.0140097C10.1484 -0.0333432 10.482 0.0516157 10.7475 0.250197C11.013 0.448777 11.1888 0.744714 11.2362 1.0729C11.2835 1.40109 11.1986 1.73465 11 2.0002ZM18.5 2.0002L18.4925 2.0102L18.4575 2.0577C18.2761 2.30833 18.1059 2.56692 17.9475 2.8327C17.8157 3.04733 17.6979 3.2703 17.595 3.5002C17.53 3.6502 17.51 3.7302 17.5025 3.7577V3.7677C17.5308 3.98884 17.6085 4.20077 17.73 4.3877C17.9175 4.7202 18.175 5.0677 18.5 5.5002L18.525 5.5302C18.82 5.9252 19.175 6.3977 19.45 6.8877C19.73 7.3877 20 8.0252 20 8.7502C20 9.2202 19.8375 9.6702 19.7025 9.9852C19.5557 10.3193 19.387 10.6434 19.1975 10.9552C19.0002 11.2823 18.7891 11.6009 18.565 11.9102L18.52 11.9727L18.5075 11.9927L18.5025 11.9977C18.3039 12.2632 18.008 12.439 17.6798 12.4864C17.3516 12.5337 17.018 12.4488 16.7525 12.2502C16.487 12.0516 16.3112 11.7557 16.2638 11.4275C16.2165 11.0993 16.3014 10.7657 16.5 10.5002L16.5075 10.4902L16.5425 10.4427C16.724 10.1921 16.8941 9.93351 17.0525 9.6677C17.1862 9.45412 17.304 9.23102 17.405 9.0002C17.47 8.8502 17.49 8.7702 17.4975 8.7427C17.4715 8.5183 17.3945 8.30281 17.2725 8.1127C17.0385 7.72612 16.7804 7.35456 16.5 7.0002L16.475 6.9702C16.1378 6.53806 15.8288 6.08461 15.55 5.6127C15.2095 5.04952 15.0201 4.40801 15 3.7502C15 3.2802 15.1625 2.8302 15.2975 2.5152C15.445 2.1702 15.6325 1.8302 15.8025 1.5452C15.9998 1.21813 16.2109 0.899516 16.435 0.590197L16.4975 0.502697C16.6961 0.237149 16.992 0.0613626 17.3202 0.0140097C17.6484 -0.0333433 17.982 0.0516157 18.2475 0.250197C18.513 0.448777 18.6888 0.744714 18.7362 1.0729C18.7835 1.40109 18.6986 1.73465 18.5 2.0002ZM26 2.0002L25.9925 2.0102L25.9575 2.0577C25.7758 2.30816 25.6056 2.56676 25.4475 2.8327C25.3157 3.04737 25.198 3.27033 25.095 3.5002C25.03 3.6502 25.01 3.7302 25.0025 3.7577V3.7677C25.0308 3.98884 25.1085 4.20077 25.23 4.3877C25.4175 4.7202 25.675 5.0677 26 5.5002L26.025 5.5302C26.32 5.9252 26.675 6.3977 26.95 6.8877C27.23 7.3877 27.5 8.0252 27.5 8.7502C27.5 9.2202 27.3375 9.6702 27.2025 9.9852C27.0565 10.3197 26.8878 10.6438 26.6975 10.9552C26.5011 11.2823 26.2909 11.6009 26.0675 11.9102L26.02 11.9727L26.0075 11.9927L26.0025 11.9977C25.8039 12.2632 25.508 12.439 25.1798 12.4864C24.8516 12.5337 24.518 12.4488 24.2525 12.2502C23.987 12.0516 23.8112 11.7557 23.7638 11.4275C23.7165 11.0993 23.8014 10.7657 24 10.5002L24.0075 10.4902L24.0425 10.4427C24.224 10.1921 24.3941 9.93351 24.5525 9.6677C24.6862 9.45412 24.804 9.23102 24.905 9.0002C24.97 8.8502 24.99 8.7702 24.9975 8.7427C24.9715 8.5183 24.8945 8.30281 24.7725 8.1127C24.5385 7.72612 24.2804 7.35456 24 7.0002L23.975 6.9702C23.6378 6.53806 23.3288 6.08461 23.05 5.6127C22.7095 5.04952 22.5201 4.40801 22.5 3.7502C22.5 3.2802 22.6625 2.8302 22.7975 2.5152C22.945 2.1702 23.1325 1.8302 23.3025 1.5452C23.4998 1.21813 23.7109 0.899516 23.935 0.590197L23.9975 0.502697C24.1961 0.237149 24.492 0.0613626 24.8202 0.0140097C25.1484 -0.0333433 25.482 0.0516157 25.7475 0.250197C26.013 0.448777 26.1888 0.744714 26.2362 1.0729C26.2835 1.40109 26.1986 1.73465 26 2.0002Z" fill="#E4E4E4"/>
</g>
<defs>
<clipPath id="clip0_305_2">
<rect width="40" height="40" fill="white"/>
</clipPath>
</defs>
</svg>
