<svg xmlns="http://www.w3.org/2000/svg" width="127" height="20" fill="none"><path fill="#E4E4E4" d="M.208 19V1.48h4.536c1.136 0 2.112.216 2.928.648a4.596 4.596 0 0 1 1.92 1.824c.464.784.696 1.712.696 2.784v6.984c0 1.072-.232 2.008-.696 2.808a4.596 4.596 0 0 1-1.92 1.824c-.816.432-1.792.648-2.928.648H.208Zm2.16-1.92h2.376c1.056 0 1.88-.296 2.472-.888.608-.592.912-1.416.912-2.472V6.736c0-1.04-.304-1.856-.912-2.448C6.624 3.696 5.8 3.4 4.744 3.4H2.368v13.68ZM15.055 19V5.8h2.112v2.52h.504l-.696 1.56c0-1.424.304-2.496.912-3.216.624-.736 1.544-1.104 2.76-1.104 1.392 0 2.496.44 3.312 1.32.832.864 1.248 2.04 1.248 3.528v.792h-2.16v-.6c0-1.04-.256-1.832-.768-2.376-.496-.56-1.208-.84-2.136-.84-.912 0-1.632.28-2.16.84-.512.56-.768 1.352-.768 2.376V19h-2.16Zm18.926.24c-1.04 0-1.952-.208-2.736-.624a4.516 4.516 0 0 1-1.8-1.752c-.416-.768-.624-1.656-.624-2.664v-3.6c0-1.024.208-1.912.624-2.664a4.516 4.516 0 0 1 1.8-1.752c.784-.416 1.696-.624 2.736-.624 1.04 0 1.944.208 2.712.624a4.32 4.32 0 0 1 1.8 1.752c.432.752.648 1.64.648 2.664v2.328h-8.208V14.2c0 1.04.264 1.84.792 2.4.528.544 1.28.816 2.256.816.832 0 1.504-.144 2.016-.432.512-.304.824-.752.936-1.344h2.16c-.144 1.104-.688 1.984-1.632 2.64-.928.64-2.088.96-3.48.96Zm3.048-7.752V10.6c0-1.04-.264-1.84-.792-2.4-.512-.56-1.264-.84-2.256-.84-.976 0-1.728.28-2.256.84-.528.56-.792 1.36-.792 2.4v.696h6.264l-.168.192ZM44.124 19 42.012 5.8h1.92l1.32 9.36c.048.352.096.736.144 1.152.064.4.112.736.144 1.008.032-.272.08-.608.144-1.008.08-.416.144-.8.192-1.152L47.34 5.8h2.064l1.464 9.36c.048.352.104.736.168 1.152.08.4.136.736.168 1.008.032-.272.08-.608.144-1.008.08-.416.144-.8.192-1.152l1.368-9.36h1.824L52.524 19h-2.376l-1.416-9.12a39.102 39.102 0 0 0-.216-1.344c-.08-.448-.136-.8-.168-1.056-.032.256-.08.608-.144 1.056-.064.448-.136.896-.216 1.344L46.5 19h-2.376Zm28.037 0V1.48h4.536c1.136 0 2.112.216 2.928.648a4.596 4.596 0 0 1 1.92 1.824c.464.784.696 1.712.696 2.784v6.984c0 1.072-.232 2.008-.696 2.808a4.596 4.596 0 0 1-1.92 1.824c-.816.432-1.792.648-2.928.648h-4.536Zm2.16-1.92h2.376c1.056 0 1.88-.296 2.472-.888.608-.592.912-1.416.912-2.472V6.736c0-1.04-.304-1.856-.912-2.448-.592-.592-1.416-.888-2.472-.888h-2.376v13.68Zm17.223 2.112c-1.056 0-1.968-.2-2.736-.6a4.356 4.356 0 0 1-1.8-1.728c-.416-.768-.624-1.672-.624-2.712v-3.504c0-1.056.208-1.96.624-2.712a4.356 4.356 0 0 1 1.8-1.728c.768-.4 1.68-.6 2.736-.6 1.056 0 1.968.2 2.736.6.768.4 1.36.976 1.776 1.728.432.752.648 1.648.648 2.688v3.528c0 1.04-.216 1.944-.648 2.712a4.205 4.205 0 0 1-1.776 1.728c-.768.4-1.68.6-2.736.6Zm0-1.92c.944 0 1.68-.264 2.208-.792.528-.528.792-1.304.792-2.328v-3.504c0-1.024-.264-1.8-.792-2.328-.528-.528-1.264-.792-2.208-.792-.928 0-1.664.264-2.208.792-.528.528-.792 1.304-.792 2.328v3.504c0 1.024.264 1.8.792 2.328.544.528 1.28.792 2.208.792ZM100.318 19V5.8h1.896v1.584h.432l-.336.576c0-.736.192-1.32.576-1.752.4-.432.936-.648 1.608-.648.736 0 1.304.272 1.704.816.4.544.6 1.312.6 2.304l-.648-1.296h1.008l-.456.576c0-.736.2-1.32.6-1.752.416-.432.96-.648 1.632-.648.832 0 1.472.312 1.92.936.464.624.696 1.448.696 2.472V19h-1.992V8.944c0-.544-.12-.968-.36-1.272-.224-.304-.56-.456-1.008-.456-.432 0-.776.152-1.032.456-.24.288-.36.704-.36 1.248V19h-1.728V8.944c0-.56-.128-.984-.384-1.272-.24-.304-.584-.456-1.032-.456-.448 0-.784.152-1.008.456-.224.288-.336.704-.336 1.248V19h-1.992Zm14.847 0v-1.968h4.68V7.768h-4.08V5.8h6.24v11.232h4.44V19h-11.28Zm5.52-15.576c-.528 0-.944-.136-1.248-.408-.304-.272-.456-.64-.456-1.104 0-.48.152-.856.456-1.128.304-.288.72-.432 1.248-.432s.944.144 1.248.432c.304.272.456.648.456 1.128 0 .464-.152.832-.456 1.104-.304.272-.72.408-1.248.408Z"/></svg>